<?xml version="1.0" standalone="no"?>
<!DOCTYPE svg PUBLIC "-//W3C//DTD SVG 20010904//EN"
 "http://www.w3.org/TR/2001/REC-SVG-20010904/DTD/svg10.dtd">
<svg version="1.0" xmlns="http://www.w3.org/2000/svg"
 width="260.000000pt" height="260.000000pt" viewBox="0 0 260.000000 260.000000"
 preserveAspectRatio="xMidYMid meet">
<metadata>
Created by potrace 1.11, written by Peter Selinger 2001-2013
</metadata>
<g transform="translate(0.000000,260.000000) scale(0.100000,-0.100000)"
fill="#000000" stroke="none">
<path d="M402 2119 c-123 -12 -201 -61 -255 -163 -32 -60 -31 -183 2 -245 36
-69 108 -130 242 -206 195 -111 252 -179 235 -283 -8 -52 -34 -83 -96 -114
-41 -22 -68 -28 -115 -28 -67 0 -182 26 -258 59 l-47 20 0 -69 0 -69 73 -23
c100 -32 314 -33 396 -3 121 45 194 150 194 280 1 132 -57 203 -273 335 -204
125 -230 151 -230 236 0 65 29 111 90 142 41 21 54 23 140 19 52 -3 115 -13
139 -21 24 -9 48 -16 53 -16 5 0 8 28 6 62 l-3 63 -52 11 c-72 16 -155 20
-241 13z"/>
<path d="M970 1546 l0 -546 75 0 75 0 0 230 0 230 69 0 70 0 143 -230 143
-230 87 0 87 0 -155 249 c-85 137 -154 253 -154 257 0 5 19 20 41 34 114 69
192 248 160 365 -17 64 -65 121 -129 152 -57 28 -59 28 -284 31 l-228 3 0
-545z m410 412 c20 -9 48 -30 63 -47 71 -85 30 -230 -87 -308 -46 -31 -53 -33
-142 -33 l-94 0 0 206 0 207 113 -5 c66 -3 127 -12 147 -20z"/>
<path d="M1850 2035 l0 -55 120 0 120 0 0 -435 0 -435 -120 0 -120 0 0 -55 0
-55 310 0 310 0 0 55 0 55 -120 0 -120 0 0 435 0 435 120 0 120 0 0 55 0 55
-310 0 -310 0 0 -55z"/>
<path d="M60 630 l0 -50 380 0 380 0 0 50 0 50 -380 0 -380 0 0 -50z"/>
<path d="M920 630 l0 -50 380 0 380 0 0 50 0 50 -380 0 -380 0 0 -50z"/>
<path d="M1790 630 l0 -50 380 0 380 0 0 50 0 50 -380 0 -380 0 0 -50z"/>
<path d="M60 390 l0 -50 380 0 380 0 0 50 0 50 -380 0 -380 0 0 -50z"/>
<path d="M920 390 l0 -50 380 0 380 0 0 50 0 50 -380 0 -380 0 0 -50z"/>
<path d="M1790 390 l0 -50 380 0 380 0 0 50 0 50 -380 0 -380 0 0 -50z"/>
</g>
</svg>
